<?xml version="1.0" encoding="UTF-8" standalone="no"?>
<svg
   xmlns:dc="http://purl.org/dc/elements/1.1/"
   xmlns:cc="http://creativecommons.org/ns#"
   xmlns:rdf="http://www.w3.org/1999/02/22-rdf-syntax-ns#"
   xmlns:svg="http://www.w3.org/2000/svg"
   xmlns="http://www.w3.org/2000/svg"
   xmlns:sodipodi="http://sodipodi.sourceforge.net/DTD/sodipodi-0.dtd"
   xmlns:inkscape="http://www.inkscape.org/namespaces/inkscape"
   enable-background="new 0 0 512 512"
   height="512px"
   id="Layer_1"
   version="1.1"
   viewBox="0 0 512 512"
   width="512px"
   xml:space="preserve"
   sodipodi:docname="iconfinder_LinkedIn_570628.svg"
   inkscape:version="1.0.1 (0767f8302a, 2020-10-17)"><metadata
     id="metadata23"><rdf:RDF><cc:Work
         rdf:about=""><dc:format>image/svg+xml</dc:format><dc:type
           rdf:resource="http://purl.org/dc/dcmitype/StillImage" /></cc:Work></rdf:RDF></metadata><defs
     id="defs21" /><sodipodi:namedview
     pagecolor="#ffffff"
     bordercolor="#666666"
     borderopacity="1"
     objecttolerance="10"
     gridtolerance="10"
     guidetolerance="10"
     inkscape:pageopacity="0"
     inkscape:pageshadow="2"
     inkscape:window-width="1920"
     inkscape:window-height="1026"
     id="namedview19"
     showgrid="false"
     inkscape:zoom="0.83789063"
     inkscape:cx="28.002143"
     inkscape:cy="278.84334"
     inkscape:window-x="1080"
     inkscape:window-y="371"
     inkscape:window-maximized="1"
     inkscape:current-layer="Layer_1" /><g
     id="g16"
     style="fill:#0e76a8;fill-opacity:1"><linearGradient
       gradientUnits="userSpaceOnUse"
       id="SVGID_1_"
       x1="8.9756"
       x2="577.923"
       y1="-78.99"
       y2="557.6892"><stop
         offset="0"
         style="stop-color:#517FA6"
         id="stop2" /><stop
         offset="1"
         style="stop-color:#426699"
         id="stop4" /></linearGradient><path
       d="M271.06,214.363v-0.525c-0.1,0.17-0.247,0.36-0.347,0.525H271.06z"
       fill="url(#SVGID_1_)"
       id="path7"
       style="fill:#0e76a8;fill-opacity:1" /><linearGradient
       gradientUnits="userSpaceOnUse"
       id="SVGID_2_"
       x1="-20.1191"
       x2="548.8283"
       y1="-52.9904"
       y2="583.6888"><stop
         offset="0"
         style="stop-color:#517FA6"
         id="stop9" /><stop
         offset="1"
         style="stop-color:#426699"
         id="stop11" /></linearGradient><path
       d="M256,7.098C118.535,7.098,7.098,118.535,7.098,256c0,137.465,111.437,248.902,248.902,248.902   c137.465,0,248.902-111.437,248.902-248.902C504.902,118.535,393.465,7.098,256,7.098z M187.455,352.802h-53.822V190.89h53.822   V352.802z M160.554,168.794h-0.363c-18.058,0-29.755-12.445-29.755-27.992c0-15.886,12.052-27.969,30.465-27.969   c18.421,0,29.747,12.083,30.102,27.969C191.004,156.349,179.323,168.794,160.554,168.794z M381.564,352.805h-53.822v-86.627   c0-21.759-7.792-36.613-27.271-36.613c-14.875,0-23.725,10.008-27.624,19.687c-1.42,3.464-1.783,8.276-1.783,13.125v90.425h-53.83   c0,0,0.718-146.718,0-161.912h53.827v22.948c7.149-11.015,19.927-26.754,48.518-26.754c35.43,0,61.983,23.138,61.986,72.871   V352.805z"
       fill="url(#SVGID_2_)"
       id="path14"
       style="fill:#0e76a8;fill-opacity:1" /></g></svg>
